Coordinates
version=1
nRows=17
nColumns=24
inDegrees=yes

Units are S.I. units (second, meters, Newtons, ...)
Angles are in degrees.

endheader
time	pelvis_tilt	pelvis_list	pelvis_rotation	pelvis_tx	pelvis_ty	pelvis_tz	hip_flexion_r	hip_adduction_r	hip_rotation_r	knee_angle_r	ankle_angle_r	subtalar_angle_r	mtp_angle_r	hip_flexion_l	hip_adduction_l	hip_rotation_l	knee_angle_l	ankle_angle_l	subtalar_angle_l	mtp_angle_l	lumbar_extension	lumbar_bending	lumbar_rotation
      3.74000000	     -4.39974001	     -4.05393939	      1.60610946	      0.34787405	      0.99100781	     -0.01627511	     -8.84488667	      2.08228383	      4.79963437	     -2.16372816	      8.00116060	      0.00000000	      0.00000000	     21.84036414	     -6.19345998	      6.28863493	      0.96661918	     -1.92154569	      0.00000000	      0.00000000	    -12.34041388	     13.85319793	      4.26447290
      3.75000000	     -4.28782697	     -3.89733198	      1.46753867	      0.34892591	      0.99054976	     -0.01779599	     -9.11829939	      1.82011004	      4.81073147	     -2.91100038	      8.17247501	      0.00000000	      0.00000000	     22.33484599	     -5.75549359	      6.80784970	     -1.17673709	     -1.45373650	      0.00000000	      0.00000000	    -12.51381246	     13.41882102	      4.26662527
      3.76000000	     -4.36964592	     -3.84086141	      1.30048083	      0.35008431	      0.98983913	     -0.01935046	     -9.06344119	      1.65684360	      4.86575874	     -3.91439725	      8.37207065	      0.00000000	      0.00000000	     23.18517087	     -5.38622792	      7.38735256	     -3.76938648	     -0.93099497	      0.00000000	      0.00000000	    -12.43657876	     13.08220965	      4.27670752
      3.77000000	     -4.16028784	     -3.68248244	      1.08191812	      0.35160488	      0.98961359	     -0.02089984	     -9.33991554	      1.37782225	      4.95002043	     -4.88762328	      8.46365171	      0.00000000	      0.00000000	     23.55292401	     -4.96336337	      7.80362912	     -6.13546099	     -0.68702868	      0.00000000	      0.00000000	    -12.67051501	     12.61133175	      4.33804453
      3.78000000	     -3.92159228	     -3.56477675	      0.82403044	      0.35339863	      0.98959323	     -0.02236800	     -9.62070800	      1.13462149	      5.02616259	     -5.89584433	      8.30115840	      0.00000000	      0.00000000	     23.74993970	     -4.63644545	      8.03016819	     -8.23601979	     -0.93911841	      0.00000000	      0.00000000	    -12.90284586	     12.16762643	      4.41488992
      3.79000000	     -4.01673952	     -3.64440675	      0.53896680	      0.35508966	      0.98903287	     -0.02374795	     -9.25959987	      1.12633430	      5.20874933	     -7.50718559	      8.44852943	      0.00000000	      0.00000000	     24.51364486	     -4.49452342	      8.36027934	    -10.80989932	     -0.54146139	      0.00000000	      0.00000000	    -12.74650840	     11.91761376	      4.52370552
      3.80000000	     -3.83870669	     -3.60604527	      0.31201680	      0.35726461	      0.98925572	     -0.02517404	     -9.46739754	      0.97008067	      5.52637641	     -8.50071095	      7.87282266	      0.00000000	      0.00000000	     24.36638729	     -4.33818670	      8.75054738	    -12.04299592	     -1.04676239	      0.00000000	      0.00000000	    -12.83745245	     11.54351148	      4.52769410
      3.81000000	     -3.65419929	     -3.69892045	     -0.08103305	      0.35921344	      0.98932523	     -0.02630001	     -9.04188714	      0.99467367	      5.35806698	    -10.80637371	      7.84737013	      0.00000000	      0.00000000	     24.61231768	     -4.36094048	      8.43752047	    -14.21044705	     -0.54428025	      0.00000000	      0.00000000	    -12.99039920	     11.25964621	      4.73686744
      3.82000000	     -3.62040096	     -3.80932551	     -0.32488007	      0.36134187	      0.98955832	     -0.02755069	     -8.60570608	      1.04765111	      5.40569581	    -12.74880828	      7.11755166	      0.00000000	      0.00000000	     24.61952799	     -4.41237371	      8.44196175	    -15.44645702	     -0.64018744	      0.00000000	      0.00000000	    -12.89913759	     11.02315769	      4.76231837
      3.83000000	     -4.05859767	     -3.90224689	     -0.71557096	      0.36317754	      0.98908273	     -0.02861357	     -7.15335937	      1.11149442	      5.45026981	    -15.73326511	      6.93472181	      0.00000000	      0.00000000	     25.19311080	     -4.49228860	      8.33896721	    -16.88422173	     -0.25034943	      0.00000000	      0.00000000	    -12.28885706	     10.74937892	      4.84494542
      3.84000000	     -4.05536355	     -3.91044360	     -1.02952965	      0.36521647	      0.98946776	     -0.02978544	     -6.27326746	      1.05907478	      5.34450861	    -18.38958890	      6.08769044	      0.00000000	      0.00000000	     25.06097000	     -4.50236445	      8.12722305	    -17.86192287	      0.19568002	      0.00000000	      0.00000000	    -12.15064175	     10.39086401	      4.85012578
      3.85000000	     -3.84096194	     -4.01778326	     -1.21696961	      0.36738301	      0.99041889	     -0.03110857	     -5.71003646	      1.09175879	      5.11395142	    -20.71511516	      4.51386725	      0.00000000	      0.00000000	     24.55390279	     -4.57579159	      8.02363639	    -18.52070424	      0.57757966	      0.00000000	      0.00000000	    -12.23054774	     10.16392201	      4.72079723
      3.86000000	     -4.24345732	     -3.72365641	     -1.61836574	      0.36917757	      0.99024270	     -0.03228577	     -3.79646598	      0.71273998	      4.84308276	    -24.44822639	      3.72981553	      0.00000000	      0.00000000	     24.76793956	     -4.30631239	      7.52352945	    -19.40164599	      1.29937031	      0.00000000	      0.00000000	    -11.58950145	      9.49605857	      4.64760607
      3.87000000	     -3.97573780	     -3.74441923	     -1.79622767	      0.37120143	      0.99137244	     -0.03362969	     -3.01334769	      0.62020102	      4.53922583	    -27.13365994	      1.85612820	      0.00000000	      0.00000000	     24.14053768	     -4.27983543	      7.24614248	    -19.98091560	      1.99080549	      0.00000000	      0.00000000	    -11.70823620	      9.19183150	      4.44082202
      3.88000000	     -3.87740106	     -3.45612627	     -2.11863070	      0.37305956	      0.99216047	     -0.03486384	     -1.75371081	      0.17091962	      4.22234077	    -30.32333484	      0.08465762	      0.00000000	      0.00000000	     23.67825735	     -3.99477083	      6.68945978	    -20.59958736	      2.84255448	      0.00000000	      0.00000000	    -11.62792314	      8.54425956	      4.21620179
      3.89000000	     -4.06708425	     -2.88005934	     -2.48417655	      0.37467948	      0.99243253	     -0.03603654	      0.05519684	     -0.59691643	      3.89647694	    -33.91239383	     -1.38204893	      0.00000000	      0.00000000	     23.47833703	     -3.44048130	      6.00728410	    -21.10054801	      3.55951869	      0.00000000	      0.00000000	    -11.18843782	      7.58254571	      4.01483538
      3.90000000	     -3.96955439	     -2.61436424	     -2.73111130	      0.37618870	      0.99323093	     -0.03717610	      1.38505701	     -1.04138205	      3.60498329	    -37.05309616	     -3.14309104	      0.00000000	      0.00000000	     22.96916416	     -3.16264444	      5.51226739	    -21.53151203	      4.19841145	      0.00000000	      0.00000000	    -11.10968950	      6.97970522	      3.70935951
